<svg xmlns="http://www.w3.org/2000/svg" viewBox="0 0 239 46">
  <g id="Group_1" data-name="Group 1" transform="translate(-111.49 -113.72)">
    <path id="Path_1" data-name="Path 1" d="M29.645-28.714v-6.174H.49v6.174H11.466V0h7.2V-28.714ZM39.69.588a8.857,8.857,0,0,0,7.3-3.724h.1V0h6.419V-24.892h-6.86v13.328c0,4.508-2.058,6.762-4.9,6.762-2.695,0-4.361-1.715-4.361-5.488v-14.6h-6.86V-9.6C30.527-2.842,34.1.588,39.69.588Zm65.072-4.655c-2.94,0-5.439-1.813-5.635-6.958h17.885a20.651,20.651,0,0,0-.784-6.37,11.49,11.49,0,0,0-11.515-8.281c-7.791,0-12.348,5.684-12.348,13.034,0,7.938,4.557,13.426,12.4,13.426,6.615,0,10.927-3.773,11.907-8.33h-7.007C109.319-5.537,107.506-4.067,104.762-4.067Zm-.049-16.758c2.744,0,5,1.715,5.439,5.488H99.274C99.813-19.11,101.92-20.825,104.713-20.825Zm26.8-4.851c-6.174,0-10.29,3.185-10.29,7.644,0,5.782,4.459,6.762,8.624,7.84,3.871,1.029,5.733,1.47,5.733,3.626,0,1.47-1.225,2.4-3.626,2.4-2.842,0-4.361-1.421-4.361-3.92h-6.958c0,6.027,4.263,8.869,11.172,8.869,6.762,0,10.976-3.136,10.976-7.791,0-6.076-4.9-7.2-9.359-8.379-3.773-.98-5.341-1.421-5.341-3.185,0-1.421,1.176-2.3,3.381-2.3,2.45,0,3.92,1.078,3.92,3.626h6.566C141.953-22.785,138.033-25.676,131.516-25.676Zm28.077-4.508a4.412,4.412,0,0,1,1.225.147v-4.851a16.452,16.452,0,0,0-3.381-.392c-5.341,0-8.232,2.695-8.232,8.134v2.254h-4.116v5.1H149.2V0h6.762V-19.8h4.7v-5.1h-4.7v-1.421C155.967-29.155,157.192-30.184,159.593-30.184Zm15.435,4.508c-7.791,0-12.74,5.145-12.74,13.23S167.237.784,175.028.784s12.74-5.145,12.74-13.23S182.819-25.676,175.028-25.676Zm0,5.292c3.381,0,5.537,3.087,5.537,7.938s-2.156,7.938-5.537,7.938-5.537-3.087-5.537-7.938S171.647-20.384,175.028-20.384Zm31.017-4.9a7.482,7.482,0,0,0-6.811,3.92h-.1v-3.528h-6.321V0h6.86V-11.76c0-4.9,2.254-7.546,6.468-7.546a11.633,11.633,0,0,1,2.156.245V-24.99A8.9,8.9,0,0,0,206.045-25.284Zm34.1-9.6h-7.2v21.315c0,5.194-2.352,7.987-6.664,7.987s-6.664-2.793-6.664-7.987V-34.888h-7.2v21.56c0,9.212,5,14.112,13.867,14.112s13.867-4.9,13.867-14.112Z" transform="translate(111 149)" fill="#fcf8ff"/>
    <path id="Icon_awesome-itunes-note" data-name="Icon awesome-itunes-note" d="M31.565,34.162c-.538,2.3-3.754,4.11-6.1,4.547-2.06.378-3.776.471-5.424-.858a4.138,4.138,0,0,1-.227-6.256c1.43-1.362,2.38-1.64,5.4-2.169a2.093,2.093,0,0,0,1.312-.622c.538-.605.64-.493.64-8.641,0-4.716-2.143-7-4.571-7s-7.571.57-7.571,7c0,15.429-.412,16.377-.714,17.689-.353,1.53-3.587,3.338-4.831,3.978a9.79,9.79,0,0,1-5.331.875A4.294,4.294,0,0,1,1.7,35.421c1.43-1.362,3.439-1.64,6.458-2.169a2.094,2.094,0,0,0,1.312-.622c.849-.967.3-20.867,1.3-22.467s20.4-3.8,20.8-2S31.809,33.111,31.565,34.162Z" transform="translate(164.835 116.838)" fill="#fcf8ff"/>
  </g>
</svg>
